<svg xmlns="http://www.w3.org/2000/svg" viewBox="0 0 39.70000076293945 16.799999237060547">
      <rect x="12.5" y="11.7" width="16.8" height="2"></rect>
      <clipPath></clipPath>
      <path d="M39.4,13.7h-4v-2h2.3c0.1-1-0.1-1.9-0.7-2.6c-0.7-0.9-1.9-1.5-3.2-1.7   c-2.4-0.3-6.5-1.2-8.2-2.2l-0.4-0.3c-3.7-2.3-4.1-2.6-7.8-2.9C11,1.8,5,5.4,4.9,5.4L4.7,5.6H2.4c-0.1,0-0.2,0.1-0.3,0.1   c0,0-0.1,0.1-0.1,0.3c0,1,0,2.5,0,4c0,1.4,3.1,1.8,3.9,1.8l-0.1,2C3.6,13.7-0.1,12.8,0,9.9c0-1.5,0-2.9,0-4c0-0.6,0.2-1.2,0.7-1.7   c0.4-0.5,1-0.7,1.7-0.7h1.7C5.4,2.8,11.2-0.2,17.5,0c4.3,0.4,5,0.8,8.8,3.2l0.4,0.3c1.3,0.8,4.9,1.7,7.4,1.9   c1.9,0.2,3.5,1.1,4.6,2.4c0.9,1.2,1.3,2.7,1,4.3l0,0.3c0,0.2-0.1,0.4-0.1,0.5L39.4,13.7z"></path>
      <path d="M2.8,10.6h-2V5.9h2.7c1.1,0,2,0.9,2,2C5.5,9.3,4.3,10.6,2.8,10.6z    M2.8,7.9v0.7c0.4,0,0.7-0.3,0.7-0.7L2.8,7.9z"></path>
      <path d="M9.1,16.8c-2.2,0-4-1.8-4-4c0-2.2,1.8-4,4-4s4,1.8,4,4   C13.2,14.9,11.4,16.8,9.1,16.8z M9.1,10.7c-1.1,0-2,0.9-2,2s0.9,2,2,2s2-0.9,2-2S10.3,10.7,9.1,10.7z"></path>
      <path d="M9.1,14c-0.7,0-1.3-0.6-1.3-1.3s0.6-1.3,1.3-1.3c0.7,0,1.3,0.6,1.3,1.3   S9.9,14,9.1,14z M9.1,12.3c-0.2,0-0.3,0.1-0.3,0.3S9,13,9.1,13c0.2,0,0.3-0.1,0.3-0.3S9.3,12.3,9.1,12.3z"></path>
      <path d="M32,16.8c-2.2,0-4-1.8-4-4c0-2.2,1.8-4,4-4s4,1.8,4,4   C36,14.9,34.2,16.8,32,16.8z M32,10.7c-1.1,0-2,0.9-2,2s0.9,2,2,2c1.1,0,2-0.9,2-2S33.1,10.7,32,10.7z"></path>
      <path d="M32,14c-0.7,0-1.3-0.6-1.3-1.3s0.6-1.3,1.3-1.3s1.3,0.6,1.3,1.3   S32.7,14,32,14z M32,12.3c-0.2,0-0.3,0.1-0.3,0.3S31.8,13,32,13s0.3-0.1,0.3-0.3S32.1,12.3,32,12.3z"></path>
      <path d="M32.8,7.3H10.6C7.8,7.3,6.4,4,6.2,3.6C6,3.1,6.2,2.5,6.8,2.3   c0.5-0.2,1.1,0,1.3,0.5c0.3,0.6,1.3,2.5,2.5,2.5h22.2c0.6,0,1,0.4,1,1S33.3,7.3,32.8,7.3z"></path>
      <path d="M10,10.3c-0.1,0-0.1,0-0.2,0C9.2,10.2,8.9,9.6,9,9.1l1.4-7.5   C10.5,1,11,0.7,11.5,0.8c0.5,0.1,0.9,0.6,0.8,1.2l-1.4,7.5C10.8,9.9,10.4,10.3,10,10.3z"></path>
      <path d="M19.4,13.3c-0.6,0-1-0.4-1-1V6.1l-1.6-4.4c-0.2-0.5,0.1-1.1,0.6-1.3   c0.5-0.2,1.1,0.1,1.3,0.6l1.7,4.7v6.6C20.4,12.9,20,13.3,19.4,13.3z"></path>
      <path d="M36.8,10.7c-0.1,0-0.3,0-0.4,0c-1-0.2-1.7-1.2-1.5-2.3   c0.2-1.1,1.2-1.7,2.3-1.5l-0.4,2l0-0.1l1.9,0.4c-0.1,0.5-0.4,0.9-0.8,1.2C37.6,10.6,37.2,10.7,36.8,10.7z"></path>
</svg>