<svg xmlns="http://www.w3.org/2000/svg" viewBox="0 0 21.899999618530273 28.5">
      <clipPath></clipPath>
      <polygon points="21.9,28.5 4.6,28.5 4.6,24.7 6.6,24.7 6.6,26.5 19.9,26.5    19.9,11.2 13.2,6.2 6.6,6.3 6.6,11.2 4.6,11.2 4.6,4.3 13.8,4.2 21.9,10.1  "></polygon>
      <path d="M4.6,6V0l9.1,0v5.9L4.6,6z M6.6,2V4l5.1,0V2L6.6,2z"></path>
      <rect x="7.6" y="1" width="1" height="3.5"></rect>
      <rect x="9.6" y="1" width="1" height="3.5"></rect>
      <path d="M5.8,25c-2.1,0-4-1.1-5.1-3c-1-1.9-1-4.1,0.2-5.9l4.9-7.8l4.9,7.8   c1.1,1.8,1.2,4,0.2,5.9C9.8,23.8,7.9,25,5.8,25z M5.8,12l-3.2,5.1c-0.7,1.2-0.8,2.6-0.1,3.8s1.9,2,3.3,2s2.6-0.7,3.3-2   c0.7-1.2,0.6-2.7-0.1-3.8L5.8,12z"></path>
      <rect x="8.5" y="14" width="12.4" height="1"></rect>
      <rect x="10.5" y="19.6" width="10.4" height="1"></rect>
</svg>