<svg xmlns="http://www.w3.org/2000/svg" viewBox="0 0 45.79999923706055 31.100000381469727">
      <clipPath></clipPath>
      <path d="M6.7,31.1c-2.5,0-4.5-2-4.5-4.5c0-2.5,2-4.5,4.5-4.5c2.5,0,4.5,2,4.5,4.5   C11.2,29.1,9.2,31.1,6.7,31.1z M6.7,24.1c-1.4,0-2.5,1.1-2.5,2.5c0,1.4,1.1,2.5,2.5,2.5c1.4,0,2.5-1.1,2.5-2.5   C9.2,25.2,8.1,24.1,6.7,24.1z"></path>
      <path d="M6.7,28.6c-1.2,0-2.1-0.9-2.1-2.1s0.9-2.1,2.1-2.1c1.2,0,2.1,0.9,2.1,2.1   S7.9,28.6,6.7,28.6z M6.7,26.4c-0.1,0-0.1,0-0.1,0.1c0,0.1,0.2,0.1,0.2,0C6.8,26.4,6.8,26.4,6.7,26.4z"></path>
      <path d="M14.1,31.1c-2.5,0-4.5-2-4.5-4.5c0-2.5,2-4.5,4.5-4.5c2.5,0,4.5,2,4.5,4.5   C18.5,29.1,16.5,31.1,14.1,31.1z M14.1,24.1c-1.4,0-2.5,1.1-2.5,2.5c0,1.4,1.1,2.5,2.5,2.5c1.4,0,2.5-1.1,2.5-2.5   C16.5,25.2,15.4,24.1,14.1,24.1z"></path>
      <path d="M14.1,28.6c-1.2,0-2.1-0.9-2.1-2.1s0.9-2.1,2.1-2.1c1.2,0,2.1,0.9,2.1,2.1   S15.2,28.6,14.1,28.6z M14.1,26.4c-0.1,0-0.1,0-0.1,0.1c0,0.1,0.2,0.1,0.2,0C14.2,26.4,14.1,26.4,14.1,26.4z"></path>
      <path d="M37.2,31.1c-2.5,0-4.5-2-4.5-4.5c0-2.5,2-4.5,4.5-4.5c2.5,0,4.5,2,4.5,4.5   C41.7,29.1,39.6,31.1,37.2,31.1z M37.2,24.1c-1.4,0-2.5,1.1-2.5,2.5c0,1.4,1.1,2.5,2.5,2.5c1.4,0,2.5-1.1,2.5-2.5   C39.7,25.2,38.5,24.1,37.2,24.1z"></path>
      <path d="M37.2,28.6c-1.2,0-2.1-0.9-2.1-2.1s0.9-2.1,2.1-2.1s2.1,0.9,2.1,2.1   S38.3,28.6,37.2,28.6z M37.2,26.4c-0.1,0-0.1,0-0.1,0.1c0,0.1,0.2,0.1,0.2,0C37.3,26.4,37.2,26.4,37.2,26.4z"></path>
      <rect x="17.8" y="25.3" width="15.9" height="2"></rect>
      <path d="M27.8,23.4h-5.7V12.8h5.7V23.4z M24.2,21.4h1.7v-6.6h-1.7V21.4z"></path>
      <path d="M26.8,23.4c-0.6,0-1-0.4-1-1V1c0-0.6,0.4-1,1-1s1,0.4,1,1v21.4   C27.8,23,27.4,23.4,26.8,23.4z"></path>
      <path d="M25,14.7c-0.6,0-1-0.4-1-1V10L21,7c-0.4-0.4-0.4-1,0-1.4s1-0.4,1.4,0   L26,9.2v4.5C26,14.3,25.6,14.7,25,14.7z"></path>
      <path d="M9.2,23.4c-0.4,0-0.7-0.2-0.9-0.5c-0.3-0.5-0.1-1.1,0.4-1.4l5.7-3.1   c0.5-0.3,1.1-0.1,1.4,0.4c0.3,0.5,0.1,1.1-0.4,1.4l-5.7,3.1C9.5,23.4,9.4,23.4,9.2,23.4z"></path>
      <path d="M44.1,25.2c-0.1,0-0.2,0-0.3,0c-0.5-0.1-1-0.4-1.3-0.8l-1.5-1.1   c-2.3-1.7-5.3-2-7.8-0.8l-2.1,1H1c-0.6,0-1-0.4-1-1s0.4-1,1-1h24.8V6.1c0-2.3,1.9-4.3,4.3-4.3h11.7c1.1,0,2.1,0.4,2.9,1.2   s1.2,1.8,1.2,2.9v8.2c0,1.2-0.6,2.3-1.5,3v1.2c0.9,0.4,1.5,1.3,1.5,2.3v3.6l-0.3,0.3C45.2,24.9,44.6,25.2,44.1,25.2z M36.4,19.7   c2,0,4,0.6,5.7,1.9l1.7,1.3v-2.2c0-0.3-0.2-0.5-0.5-0.5h-1v-4.1l0.7-0.4c0.5-0.3,0.8-0.9,0.8-1.5V6c0-0.6-0.2-1.1-0.6-1.5   c-0.4-0.4-0.9-0.6-1.5-0.6H30c-1.2,0-2.3,1-2.3,2.3v15.3h2.8l1.7-0.8C33.6,20,35,19.7,36.4,19.7z"></path>
      <polygon points="36,21.1 34,21.1 34,9.1 37.5,9.1 39.2,10.3 44.8,10.3 44.8,12.3    38.5,12.3 36.9,11.1 36,11.1  "></polygon>
      <rect x="33.2" y="2.9" width="2" height="7.2"></rect>
      <rect x="35.6" y="2.9" width="2" height="17.5"></rect>
      <path d="M28.7,16.5h-1.3V12h4.7v1C32.1,14.9,30.6,16.5,28.7,16.5z M29.4,14v0.2   c0.1-0.1,0.2-0.1,0.3-0.2H29.4z"></path>
      <rect x="28.1" y="16.4" width="2.8" height="2"></rect>
      <rect x="28.1" y="18.4" width="2.8" height="2"></rect>
      <path d="M44.8,14.5h-4.2c-0.6,0-1-0.4-1-1s0.4-1,1-1h4.2c0.6,0,1,0.4,1,1   S45.4,14.5,44.8,14.5z"></path>
      <path d="M44.8,16.2h-2.5c-0.6,0-1-0.4-1-1s0.4-1,1-1h2.5c0.6,0,1,0.4,1,1   S45.4,16.2,44.8,16.2z"></path>
      <path d="M33.7,7.3H29c-0.6,0-1-0.4-1-1s0.4-1,1-1h4.7c0.6,0,1,0.4,1,1   S34.2,7.3,33.7,7.3z"></path>
      <path d="M33.7,9.3h-5.3c-0.6,0-1-0.4-1-1s0.4-1,1-1h5.3c0.6,0,1,0.4,1,1   S34.2,9.3,33.7,9.3z"></path>
</svg>