<svg xmlns="http://www.w3.org/2000/svg" viewBox="0 0 24.299999237060547 24.299999237060547">
      <clipPath></clipPath>
      <path d="M12.1,24.3C5.4,24.3,0,18.8,0,12.1S5.4,0,12.1,0s12.1,5.4,12.1,12.1   S18.8,24.3,12.1,24.3z M12.1,2C6.5,2,2,6.5,2,12.1s4.5,10.1,10.1,10.1s10.1-4.5,10.1-10.1S17.7,2,12.1,2z"></path>
      <path d="M12.1,21.5c-5.1,0-9.3-4.2-9.3-9.3C2.8,7,7,2.8,12.1,2.8   c5.1,0,9.3,4.2,9.3,9.3C21.5,17.3,17.3,21.5,12.1,21.5z M12.1,4.8c-4,0-7.3,3.3-7.3,7.3s3.3,7.3,7.3,7.3s7.3-3.3,7.3-7.3   S16.2,4.8,12.1,4.8z"></path>
      <path d="M12.1,16.3c-2.3,0-4.2-1.9-4.2-4.2S9.8,8,12.1,8s4.2,1.9,4.2,4.2   S14.4,16.3,12.1,16.3z M12.1,10c-1.2,0-2.2,1-2.2,2.2c0,1.2,1,2.2,2.2,2.2c1.2,0,2.2-1,2.2-2.2C14.3,10.9,13.3,10,12.1,10z"></path>
      <path d="M12.8,12.1c0,0.4-0.3,0.6-0.6,0.6s-0.6-0.3-0.6-0.6c0-0.4,0.3-0.6,0.6-0.6   S12.8,11.8,12.8,12.1"></path>
      <rect x="1.7" y="13.6" transform="matrix(0.9313 -0.3641 0.3641 0.9313 -4.7713 2.9623)" width="7.5" height="1"></rect>
      <rect x="18.5" y="10.4" transform="matrix(0.3639 -0.9315 0.9315 0.3639 -1.1045 26.6513)" width="1" height="7.5"></rect>
      <rect x="8.1" y="18.8" transform="matrix(1.171795e-002 -0.9999 0.9999 1.171795e-002 -7.3306 31.1201)" width="8" height="1"></rect>
      <rect x="7.4" y="2.3" transform="matrix(0.8087 -0.5882 0.5882 0.8087 -2.2539 5.8457)" width="1" height="8.1"></rect>
      <rect x="12" y="5.9" transform="matrix(0.5881 -0.8088 0.8088 0.5881 1.4673 15.6572)" width="8.1" height="1"></rect>
</svg>